<svg xmlns="http://www.w3.org/2000/svg" xmlns:xlink="http://www.w3.org/1999/xlink" version="1.1" x="0px" y="0px" viewBox="0 0 207.1 232.72125" style="enable-background:new 0 0 207.1 186.177;" xml:space="preserve"><g><path d="M194.916,88.422c-0.137-0.07-0.275-0.132-0.412-0.199v40.389c4.191-2.051,7.783-5.417,10.088-9.882   C210.287,107.69,205.955,94.119,194.916,88.422z"/><path d="M164.609,98.099c-5.648,10.944-1.436,24.371,9.395,30.15V88.573C170.111,90.648,166.785,93.882,164.609,98.099z"/><path d="M75.162,132.926c0.868,0.402,1.757,0.7,2.653,0.907c3.037,0.786,7.046,0.65,12.396-0.864   c23.137-2.864,29.912-1.121,43.785-0.02c9.879,1.67,21.594-3.258,23.566-11.721c1.314-5.634-0.365-12.576-5.925-17.545   c0.336,3.733,0.617,6.212,0.694,6.873l0.088,0.767c0.361,2.913-0.434,5.796-2.24,8.114c-1.805,2.318-4.408,3.792-7.324,4.153   c-0.473,0.058-0.93,0.084-1.365,0.084c-5.535,0-10.223-4.146-10.902-9.644c-0.239-1.989-1.007-8.723-1.621-17.982   c-14.31-2.063-26.148-1.261-43.697,2.692c-5.404,1.632-9.305,3.356-12.051,5.264c-7.307-1.685-14.925-2.389-22.353-2.431   c-7.301,0.014-14.323,0.723-20.778,2.422c-3.236,0.867-6.348,1.975-9.401,3.637c-3.016,1.676-6.133,3.917-8.693,7.635   c-1.862,2.799-2.857,5.302-3.807,7.952c-1.588,4.591-2.727,9.608-3.736,14.867c-2.956,15.643-4.374,33.239-4.403,33.481   c-0.614,7.431,4.914,13.951,12.347,14.564c0.376,0.031,0.75,0.046,1.12,0.046c6.955,0.001,12.862-5.338,13.443-12.393   c-0.002-0.004,0.044-0.555,0.143-1.631c0.344-3.763,1.321-13.533,2.838-23.044c0.753-4.742,1.651-9.432,2.587-13.07   c0.463-1.81,0.938-3.36,1.332-4.414c0.069-0.188,0.135-0.358,0.196-0.511c0.895-0.402,2.676-1.056,4.938-1.482   c3.236-0.662,7.448-1.063,11.876-1.059C59.795,128.505,69.788,130.344,75.162,132.926z"/><path d="M141.492,121.675c0.369,0,0.742-0.022,1.117-0.069c4.936-0.611,8.438-5.104,7.826-10.038c0,0-0.031-0.246-0.092-0.78   c-0.159-1.372-0.5-4.494-0.866-8.796c-0.634-7.441-1.348-18.423-1.347-30.059c-0.001-1.403,0.012-2.816,0.033-4.232   c-2.283,0.455-4.642,0.698-7.057,0.698c-3.807,0-7.476-0.599-10.922-1.697c-0.031,1.755-0.052,3.504-0.053,5.231   c0.002,8.969,0.393,17.464,0.863,24.428c0.696,10.33,1.563,17.292,1.576,17.423C133.137,118.338,137.015,121.674,141.492,121.675z"/><path d="M141.107,64.803c2.454,0,4.841-0.282,7.14-0.799c0.681-0.153,1.355-0.327,2.02-0.522   c13.433-3.953,23.243-16.368,23.243-31.081c0-17.893-14.508-32.4-32.402-32.4c-17.893,0-32.4,14.508-32.4,32.4   c0,13.343,8.068,24.799,19.589,29.766c0.649,0.279,1.311,0.537,1.981,0.775C133.664,64.143,137.308,64.803,141.107,64.803z    M128.244,32.4c0-7.106,5.76-12.863,12.863-12.863c7.105,0,12.865,5.758,12.865,12.863c0,2.208-0.559,4.286-1.539,6.103   c-0.563,1.042-1.269,1.992-2.085,2.836c-2.339,2.419-5.611,3.929-9.241,3.929c-3.516,0-6.699-1.415-9.021-3.702   c-0.634-0.625-1.203-1.315-1.698-2.06C129.035,37.469,128.244,35.027,128.244,32.4z"/><path d="M133.142,36.338c1.453,2.935,4.469,4.957,7.965,4.957c3.833,0,7.091-2.43,8.342-5.828c0.32-0.869,0.508-1.799,0.54-2.771   c0.003-0.099,0.015-0.196,0.015-0.296c0-4.911-3.984-8.891-8.896-8.891c-4.912,0-8.893,3.979-8.893,8.891   c0,0.422,0.039,0.834,0.097,1.24C132.445,34.598,132.729,35.504,133.142,36.338z"/><path d="M176.004,184.619h16.498v-55.145v-42.12V68.676v-6.053V34.676h-6.332v27.947h-7.355l-3.629-6.473l-5.523,3.096   l6.342,11.312v17.072v41.563v7.361h-2H53.01c-2.762,0-5,2.238-5,5v3.732v10.268v29.063h16.5v-29.063h109.494h2V184.619z    M57.836,143.009c1.533,0,2.844,0.943,3.391,2.279c0.176,0.429,0.275,0.895,0.275,1.388c0,2.024-1.641,3.666-3.666,3.666   c-2.025,0-3.666-1.642-3.666-3.666c0-0.492,0.101-0.959,0.275-1.388C54.993,143.952,56.303,143.009,57.836,143.009z    M187.17,146.676c0,2.024-1.643,3.666-3.666,3.666c-2.025,0-3.668-1.642-3.668-3.666c0-2.025,1.643-3.667,3.668-3.667   C185.527,143.009,187.17,144.65,187.17,146.676z"/></g><text x="0" y="201.177" fill="#000000" font-size="5px" font-weight="bold" font-family="'Helvetica Neue', Helvetica, Arial-Unicode, Arial, Sans-serif">Created by Gan Khoon Lay</text><text x="0" y="206.177" fill="#000000" font-size="5px" font-weight="bold" font-family="'Helvetica Neue', Helvetica, Arial-Unicode, Arial, Sans-serif">from the Noun Project</text></svg>